<svg width="28" height="28" viewBox="0 0 28 28" fill="none" xmlns="http://www.w3.org/2000/svg">
<path d="M10.2667 0C6.65871 0 3.73333 2.92259 3.73333 6.52968C3.73333 10.1368 6.65871 13.0594 10.2667 13.0594C13.8746 13.0594 16.8 10.1368 16.8 6.52968C16.8 2.92259 13.8746 0 10.2667 0Z" fill="#001B2E"/>
<path d="M6.53333 16.7891C2.92528 16.7891 0 19.713 0 23.3214V27.983H20.5333V23.3214C20.5333 19.713 17.6081 16.7891 14 16.7891H6.53333Z" fill="#001B2E"/>
<path d="M23.3333 18.6667H22.4V28H28V23.3333C28 20.756 25.9107 18.6667 23.3333 18.6667Z" fill="#001B2E"/>
<path d="M21.4667 7.46667C18.8893 7.46667 16.8 9.55601 16.8 12.1333C16.8 14.7107 18.8893 16.8 21.4667 16.8C24.044 16.8 26.1333 14.7107 26.1333 12.1333C26.1333 9.55601 24.044 7.46667 21.4667 7.46667Z" fill="#001B2E"/>
</svg>
