<?xml version="1.0" encoding="utf-8"?>
<!-- Generator: Adobe Illustrator 24.0.1, SVG Export Plug-In . SVG Version: 6.00 Build 0)  -->
<svg version="1.1" id="Layer_1" xmlns="http://www.w3.org/2000/svg" xmlns:xlink="http://www.w3.org/1999/xlink" x="0px" y="0px"
	 viewBox="0 0 28 28" style="enable-background:new 0 0 28 28;" xml:space="preserve">
<style type="text/css">
	.st0{fill:#C90000;}
	.st1{opacity:0.4;fill:#C90000;enable-background:new    ;}
</style>
<path class="st0" d="M25.4,19.1c-0.9-1.1-0.1-4.5,0.5-6.2l0.2-0.6c0.8-2.2,0.7-3.8,0.1-5.6c-1-2.8-3.4-5.1-6.2-6.1l-0.1,0
	c-2.8-0.9-6-0.6-8.5,0.9C9.7,2.5,8.6,3.8,7.8,6.1L7.6,6.7C7,8.4,5.3,11,4.1,11.9c-1.2,0.9-2.6,0.8-3,2c-0.4,1.2,0,2.3,1.3,3.5
	c1.3,1.2,2.3,1.8,3.8,2.4c2.1,1,4.2,1.8,6.3,2.5c2.2,0.7,4.4,1.3,6.6,1.8c1.5,0.4,3.1,0.7,4.5,0.4c1.4-0.3,3-0.7,3.4-1.9
	C27.4,21.5,26.3,20.1,25.4,19.1z"/>
<path class="st1" d="M14.7,24.9C14,24.5,9.9,23.1,9.2,23c-0.6-0.1-1.4,0-1.6,0.7c-0.2,0.7,0,1.4,0.4,1.9l0,0c0.5,0.8,1.2,1.4,2,1.8
	c0.4,0.2,0.9,0.4,1.4,0.5c0.9,0.2,1.8,0.1,2.7-0.2l0,0c0.7-0.2,1.2-0.6,1.5-1.3C15.7,25.7,15.2,25.2,14.7,24.9"/>
</svg>
