<svg width="28" height="28" viewBox="0 0 28 28" fill="none" xmlns="http://www.w3.org/2000/svg">
<path d="M11.2493 14.0001C11.2493 12.4557 12.4804 11.2009 13.998 11.2009C15.5157 11.2009 16.7468 12.4557 16.7468 14.0001C16.7468 15.5444 15.5157 16.7994 13.998 16.7994C12.4804 16.7994 11.2493 15.5444 11.2493 14.0001Z" fill="#001B2E"/>
<path fill-rule="evenodd" clip-rule="evenodd" d="M10.3943 0H17.6005L17.9057 1.5618L17.9068 1.56713L18.4088 4.05993C19.1247 4.38174 19.7887 4.78018 20.4028 5.23116L22.9124 4.37588L24.3999 3.90615L25.1767 5.26363L27.2061 8.72486L28 10.1125L26.8177 11.163L24.9354 12.7951C24.9945 13.1614 25.0493 13.5749 25.0493 13.9999C25.0493 14.425 24.9945 14.8386 24.9354 15.2049L26.8261 16.8443L28 17.8875L27.2011 19.2836L25.1769 22.736L24.3999 24.0973L22.8932 23.6178L20.4028 22.7688C19.7887 23.2198 19.1247 23.6182 18.4088 23.94L17.9068 26.4327L17.9057 26.4381L17.6005 28H10.3943L10.0919 26.4347L9.58802 23.9401C8.87197 23.6183 8.2079 23.2199 7.5937 22.7688L5.08587 23.6235L3.59523 24.0977L2.82096 22.7353L0.789556 19.2735L0 17.8875L1.17881 16.837L3.06179 15.2044C3.0029 14.839 2.94723 14.4239 2.94723 13.9999C2.94723 13.576 3.00289 13.1609 3.06178 12.7956L1.16938 11.1548L3.97586e-05 10.1125L0.795576 8.71592L2.82122 5.26429L3.59524 3.90571L5.10334 4.3822L7.5937 5.23116C8.20787 4.78011 8.87194 4.38162 9.58802 4.05979L10.0919 1.56515L10.3943 0ZM13.998 9.33307C11.4695 9.33307 9.41673 11.423 9.41673 14.0001C9.41673 16.5771 11.4694 18.6672 13.998 18.6672C16.5266 18.6672 18.5793 16.5771 18.5793 14.0001C18.5793 11.423 16.5266 9.33307 13.998 9.33307Z" fill="#001B2E"/>
</svg>
