<svg width="240" height="24" viewBox="0 0 240 24" fill="none" xmlns="http://www.w3.org/2000/svg">
<path d="M3.816 10.2681C4.38 9.41614 5.058 8.99014 5.85 8.99014C7.074 8.99014 7.986 9.51214 8.586 10.5561C8.718 10.3761 8.874 10.1901 9.054 9.99814C9.246 9.79414 9.546 9.57814 9.954 9.35014C10.362 9.11014 10.782 8.99014 11.214 8.99014C12.174 8.99014 12.978 9.36214 13.626 10.1061C14.274 10.8381 14.598 12.0561 14.598 13.7601V16.9101C14.598 17.1861 14.586 17.3961 14.562 17.5401C14.55 17.6721 14.496 17.8281 14.4 18.0081C14.244 18.3321 13.782 18.4941 13.014 18.4941C12.258 18.4941 11.796 18.3261 11.628 17.9901C11.544 17.8101 11.49 17.6541 11.466 17.5221C11.454 17.3781 11.448 17.1681 11.448 16.8921V13.7421C11.448 12.6981 11.076 12.1761 10.332 12.1761C9.912 12.1761 9.624 12.3141 9.468 12.5901C9.324 12.8661 9.252 13.2561 9.252 13.7601V16.9101C9.252 17.1981 9.24 17.4081 9.216 17.5401C9.204 17.6721 9.15 17.8281 9.054 18.0081C8.886 18.3321 8.418 18.4941 7.65 18.4941C6.894 18.4941 6.432 18.3261 6.264 17.9901C6.18 17.8101 6.126 17.6541 6.102 17.5221C6.09 17.3781 6.084 17.1681 6.084 16.8921V13.7421C6.084 12.6981 5.712 12.1761 4.968 12.1761C4.248 12.1761 3.888 12.6981 3.888 13.7421V16.9281C3.888 17.2041 3.876 17.4141 3.852 17.5581C3.84 17.6901 3.786 17.8461 3.69 18.0261C3.51 18.3381 3.042 18.4941 2.286 18.4941C1.53 18.4941 1.068 18.3321 0.9 18.0081C0.816 17.8281 0.762 17.6721 0.738 17.5401C0.726 17.4081 0.72 17.1981 0.72 16.9101V10.5741C0.72 10.2981 0.726 10.0941 0.738 9.96214C0.762 9.81814 0.822 9.66214 0.918 9.49414C1.098 9.17014 1.524 9.00814 2.196 9.00814C2.868 9.00814 3.306 9.11614 3.51 9.33214C3.714 9.54814 3.816 9.86014 3.816 10.2681ZM25.2645 12.6261C25.2645 13.3581 25.0785 13.9041 24.7065 14.2641C24.3465 14.6121 23.9445 14.7861 23.5005 14.7861H19.2345C19.2345 15.1221 19.4325 15.4041 19.8285 15.6321C20.2245 15.8601 20.6205 15.9741 21.0165 15.9741C21.7125 15.9741 22.2585 15.9021 22.6545 15.7581L22.8525 15.6861C23.1405 15.5541 23.3805 15.4881 23.5725 15.4881C23.9565 15.4881 24.2865 15.7581 24.5625 16.2981C24.7185 16.6221 24.7965 16.8981 24.7965 17.1261C24.7965 18.1941 23.5185 18.7281 20.9625 18.7281C20.0745 18.7281 19.2825 18.5781 18.5865 18.2781C17.9025 17.9661 17.3685 17.5581 16.9845 17.0541C16.2285 16.0821 15.8505 14.9961 15.8505 13.7961C15.8505 12.2841 16.3365 11.0781 17.3085 10.1781C18.2925 9.26614 19.5165 8.81014 20.9805 8.81014C22.6485 8.81014 23.8725 9.39814 24.6525 10.5741C25.0605 11.1981 25.2645 11.8821 25.2645 12.6261ZM21.4665 13.1481C21.9225 13.1481 22.1505 12.9561 22.1505 12.5721C22.1505 12.2961 22.0425 12.0741 21.8265 11.9061C21.6225 11.7381 21.3225 11.6541 20.9265 11.6541C20.5425 11.6541 20.1585 11.8161 19.7745 12.1401C19.3905 12.4521 19.1985 12.7881 19.1985 13.1481H21.4665ZM29.6249 10.2681C30.1889 9.41614 30.8669 8.99014 31.6589 8.99014C32.8829 8.99014 33.7949 9.51214 34.3949 10.5561C34.5269 10.3761 34.6829 10.1901 34.8629 9.99814C35.0549 9.79414 35.3549 9.57814 35.7629 9.35014C36.1709 9.11014 36.5909 8.99014 37.0229 8.99014C37.9829 8.99014 38.7869 9.36214 39.4349 10.1061C40.0829 10.8381 40.4069 12.0561 40.4069 13.7601V16.9101C40.4069 17.1861 40.3949 17.3961 40.3709 17.5401C40.3589 17.6721 40.3049 17.8281 40.2089 18.0081C40.0529 18.3321 39.5909 18.4941 38.8229 18.4941C38.0669 18.4941 37.6049 18.3261 37.4369 17.9901C37.3529 17.8101 37.2989 17.6541 37.2749 17.5221C37.2629 17.3781 37.2569 17.1681 37.2569 16.8921V13.7421C37.2569 12.6981 36.8849 12.1761 36.1409 12.1761C35.7209 12.1761 35.4329 12.3141 35.2769 12.5901C35.1329 12.8661 35.0609 13.2561 35.0609 13.7601V16.9101C35.0609 17.1981 35.0489 17.4081 35.0249 17.5401C35.0129 17.6721 34.9589 17.8281 34.8629 18.0081C34.6949 18.3321 34.2269 18.4941 33.4589 18.4941C32.7029 18.4941 32.2409 18.3261 32.0729 17.9901C31.9889 17.8101 31.9349 17.6541 31.9109 17.5221C31.8989 17.3781 31.8929 17.1681 31.8929 16.8921V13.7421C31.8929 12.6981 31.5209 12.1761 30.7769 12.1761C30.0569 12.1761 29.6969 12.6981 29.6969 13.7421V16.9281C29.6969 17.2041 29.6849 17.4141 29.6609 17.5581C29.6489 17.6901 29.5949 17.8461 29.4989 18.0261C29.3189 18.3381 28.8509 18.4941 28.0949 18.4941C27.3389 18.4941 26.8769 18.3321 26.7089 18.0081C26.6249 17.8281 26.5709 17.6721 26.5469 17.5401C26.5349 17.4081 26.5289 17.1981 26.5289 16.9101V10.5741C26.5289 10.2981 26.5349 10.0941 26.5469 9.96214C26.5709 9.81814 26.6309 9.66214 26.7269 9.49414C26.9069 9.17014 27.3329 9.00814 28.0049 9.00814C28.6769 9.00814 29.1149 9.11614 29.3189 9.33214C29.5229 9.54814 29.6249 9.86014 29.6249 10.2681ZM47.1315 9.02614C48.1995 9.02614 49.1775 9.50014 50.0655 10.4481C50.9655 11.3961 51.4155 12.5001 51.4155 13.7601C51.4155 15.0081 50.9715 16.1061 50.0835 17.0541C49.1955 17.9901 48.2415 18.4581 47.2215 18.4581C46.2015 18.4581 45.4755 18.1701 45.0435 17.5941C44.9475 18.1821 44.4315 18.4761 43.4955 18.4761C42.7395 18.4761 42.2775 18.3141 42.1095 17.9901C42.0255 17.8101 41.9715 17.6541 41.9475 17.5221C41.9355 17.3781 41.9295 17.1681 41.9295 16.8921V6.14614C41.9295 5.87014 41.9355 5.66614 41.9475 5.53414C41.9715 5.39014 42.0255 5.23414 42.1095 5.06614C42.2775 4.74214 42.7455 4.58014 43.5135 4.58014C44.2695 4.58014 44.7255 4.74214 44.8815 5.06614C44.9775 5.24614 45.0315 5.40814 45.0435 5.55214C45.0675 5.68414 45.0795 5.88814 45.0795 6.16414V9.90814C45.5595 9.32014 46.2435 9.02614 47.1315 9.02614ZM45.5475 14.8401C45.8475 15.1641 46.2195 15.3261 46.6635 15.3261C47.1075 15.3261 47.4855 15.1641 47.7975 14.8401C48.1095 14.5161 48.2655 14.1561 48.2655 13.7601C48.2655 13.3641 48.1215 13.0041 47.8335 12.6801C47.5455 12.3441 47.1615 12.1761 46.6815 12.1761C46.2015 12.1761 45.8175 12.3441 45.5295 12.6801C45.2535 13.0161 45.1155 13.3821 45.1155 13.7781C45.1155 14.1621 45.2595 14.5161 45.5475 14.8401ZM61.8158 12.6261C61.8158 13.3581 61.6298 13.9041 61.2578 14.2641C60.8978 14.6121 60.4958 14.7861 60.0518 14.7861H55.7858C55.7858 15.1221 55.9838 15.4041 56.3798 15.6321C56.7758 15.8601 57.1718 15.9741 57.5678 15.9741C58.2638 15.9741 58.8098 15.9021 59.2058 15.7581L59.4038 15.6861C59.6918 15.5541 59.9318 15.4881 60.1238 15.4881C60.5078 15.4881 60.8378 15.7581 61.1138 16.2981C61.2698 16.6221 61.3478 16.8981 61.3478 17.1261C61.3478 18.1941 60.0698 18.7281 57.5138 18.7281C56.6258 18.7281 55.8338 18.5781 55.1378 18.2781C54.4538 17.9661 53.9198 17.5581 53.5358 17.0541C52.7798 16.0821 52.4018 14.9961 52.4018 13.7961C52.4018 12.2841 52.8878 11.0781 53.8598 10.1781C54.8438 9.26614 56.0678 8.81014 57.5318 8.81014C59.1998 8.81014 60.4238 9.39814 61.2038 10.5741C61.6118 11.1981 61.8158 11.8821 61.8158 12.6261ZM58.0178 13.1481C58.4738 13.1481 58.7018 12.9561 58.7018 12.5721C58.7018 12.2961 58.5938 12.0741 58.3778 11.9061C58.1738 11.7381 57.8738 11.6541 57.4778 11.6541C57.0938 11.6541 56.7098 11.8161 56.3258 12.1401C55.9418 12.4521 55.7498 12.7881 55.7498 13.1481H58.0178ZM69.5242 9.11614C69.7522 9.18814 69.9382 9.31414 70.0822 9.49414C70.2382 9.66214 70.3162 9.93814 70.3162 10.3221C70.3162 10.7061 70.2022 11.1261 69.9742 11.5821C69.7462 12.0381 69.4162 12.2661 68.9842 12.2661C68.7682 12.2661 68.5582 12.2181 68.3542 12.1221C68.1622 12.0261 67.9042 11.9781 67.5802 11.9781C67.2562 11.9781 66.9502 12.0921 66.6622 12.3201C66.3862 12.5481 66.2482 12.8241 66.2482 13.1481V16.9281C66.2482 17.2041 66.2362 17.4141 66.2122 17.5581C66.2002 17.6901 66.1462 17.8461 66.0502 18.0261C65.8702 18.3381 65.4022 18.4941 64.6462 18.4941C64.0702 18.4941 63.6562 18.3921 63.4042 18.1881C63.2122 18.0201 63.1042 17.7621 63.0802 17.4141C63.0802 17.2941 63.0802 17.1201 63.0802 16.8921V10.5741C63.0802 10.2981 63.0862 10.0941 63.0982 9.96214C63.1222 9.81814 63.1762 9.66214 63.2602 9.49414C63.4282 9.17014 63.8962 9.00814 64.6642 9.00814C65.3842 9.00814 65.8342 9.14614 66.0142 9.42214C66.1462 9.61414 66.2122 9.81214 66.2122 10.0161C66.2722 9.93214 66.3562 9.83014 66.4642 9.71014C66.5842 9.59014 66.8302 9.42814 67.2022 9.22414C67.5742 9.02014 67.8982 8.91814 68.1742 8.91814C68.4622 8.91814 68.7022 8.93614 68.8942 8.97214C69.0862 8.99614 69.2962 9.04414 69.5242 9.11614ZM71.1172 17.6481C70.8892 17.5041 70.7752 17.2761 70.7752 16.9641C70.7752 16.6521 71.0032 16.1781 71.4592 15.5421C71.5912 15.3381 71.8012 15.2361 72.0892 15.2361C72.3892 15.2361 72.7912 15.3861 73.2952 15.6861C73.7992 15.9741 74.2552 16.1181 74.6632 16.1181C75.3952 16.1181 75.7612 15.9741 75.7612 15.6861C75.7612 15.4581 75.3592 15.2901 74.5552 15.1821C73.7992 15.0741 73.0492 14.7921 72.3052 14.3361C71.9572 14.1201 71.6692 13.7841 71.4412 13.3281C71.2132 12.8601 71.0992 12.3081 71.0992 11.6721C71.0992 9.77614 72.4012 8.82814 75.0052 8.82814C75.8572 8.82814 76.7332 9.03214 77.6332 9.44014C78.0532 9.63214 78.2632 9.87214 78.2632 10.1601C78.2632 10.4481 78.1312 10.8021 77.8672 11.2221C77.6032 11.6421 77.3332 11.8521 77.0572 11.8521C76.9132 11.8521 76.6432 11.7621 76.2472 11.5821C75.8632 11.4021 75.4432 11.3121 74.9872 11.3121C74.2792 11.3121 73.9252 11.4441 73.9252 11.7081C73.9252 12.0681 74.3332 12.3021 75.1492 12.4101C75.9412 12.4941 76.7092 12.7221 77.4532 13.0941C77.8012 13.2621 78.0892 13.5561 78.3172 13.9761C78.5572 14.3841 78.6772 14.9001 78.6772 15.5241C78.6772 16.1481 78.5572 16.6821 78.3172 17.1261C78.0892 17.5581 77.7652 17.8821 77.3452 18.0981C76.5772 18.4701 75.6112 18.6561 74.4472 18.6561C73.2952 18.6561 72.1852 18.3201 71.1172 17.6481Z" fill="black"/>
<path d="M89 14.5667H239.5" stroke="black"/>
</svg>
