<svg width="240" height="23" viewBox="0 0 240 23" fill="none" xmlns="http://www.w3.org/2000/svg">
<path d="M6.696 9.468C6.768 8.832 7.236 8.514 8.1 8.514C8.556 8.514 8.892 8.55 9.108 8.622C9.324 8.694 9.474 8.82 9.558 9C9.654 9.168 9.708 9.318 9.72 9.45C9.744 9.582 9.756 9.786 9.756 10.062V20.574C9.756 20.85 9.744 21.054 9.72 21.186C9.708 21.318 9.654 21.468 9.558 21.636C9.474 21.804 9.318 21.924 9.09 21.996C8.874 22.068 8.58 22.104 8.208 22.104C7.836 22.104 7.542 22.068 7.326 21.996C7.11 21.924 6.954 21.798 6.858 21.618C6.774 21.45 6.72 21.3 6.696 21.168C6.684 21.036 6.678 20.832 6.678 20.556V16.92C6.198 17.472 5.52 17.748 4.644 17.748C3.576 17.748 2.61 17.286 1.746 16.362C0.882 15.438 0.45 14.364 0.45 13.14C0.45 11.916 0.888 10.842 1.764 9.918C2.64 8.994 3.564 8.532 4.536 8.532C5.52 8.532 6.24 8.844 6.696 9.468ZM3.978 14.22C4.29 14.532 4.662 14.688 5.094 14.688C5.526 14.688 5.886 14.532 6.174 14.22C6.462 13.896 6.606 13.548 6.606 13.176C6.606 12.792 6.468 12.438 6.192 12.114C5.916 11.778 5.544 11.61 5.076 11.61C4.62 11.61 4.248 11.772 3.96 12.096C3.672 12.408 3.528 12.762 3.528 13.158C3.528 13.554 3.678 13.908 3.978 14.22ZM15.4986 17.964C14.2866 17.964 13.2786 17.508 12.4746 16.596C11.6826 15.672 11.2866 14.55 11.2866 13.23V10.08C11.2866 9.792 11.2926 9.582 11.3046 9.45C11.3286 9.318 11.3826 9.162 11.4666 8.982C11.6346 8.658 12.1026 8.496 12.8706 8.496C13.7106 8.496 14.2026 8.724 14.3466 9.18C14.4186 9.372 14.4546 9.678 14.4546 10.098V13.248C14.4546 13.74 14.5926 14.124 14.8686 14.4C15.1566 14.676 15.5346 14.814 16.0026 14.814C16.4826 14.814 16.8666 14.67 17.1546 14.382C17.4546 14.094 17.6046 13.716 17.6046 13.248V10.062C17.6046 9.786 17.6106 9.582 17.6226 9.45C17.6466 9.306 17.7066 9.144 17.8026 8.964C17.9586 8.652 18.4206 8.496 19.1886 8.496C19.9446 8.496 20.4066 8.658 20.5746 8.982C20.6586 9.162 20.7066 9.324 20.7186 9.468C20.7426 9.6 20.7546 9.804 20.7546 10.08V16.452C20.7546 16.716 20.7426 16.92 20.7186 17.064C20.7066 17.196 20.6526 17.346 20.5566 17.514C20.3766 17.826 19.9146 17.982 19.1706 17.982C18.4386 17.982 17.9886 17.838 17.8206 17.55C17.7006 17.346 17.6406 17.1 17.6406 16.812C17.5926 16.896 17.4846 17.016 17.3166 17.172C17.1486 17.328 16.9866 17.46 16.8306 17.568C16.4226 17.832 15.9786 17.964 15.4986 17.964ZM31.4366 12.132C31.4366 12.864 31.2506 13.41 30.8786 13.77C30.5186 14.118 30.1166 14.292 29.6726 14.292H25.4066C25.4066 14.628 25.6046 14.91 26.0006 15.138C26.3966 15.366 26.7926 15.48 27.1886 15.48C27.8846 15.48 28.4306 15.408 28.8266 15.264L29.0246 15.192C29.3126 15.06 29.5526 14.994 29.7446 14.994C30.1286 14.994 30.4586 15.264 30.7346 15.804C30.8906 16.128 30.9686 16.404 30.9686 16.632C30.9686 17.7 29.6906 18.234 27.1346 18.234C26.2466 18.234 25.4546 18.084 24.7586 17.784C24.0746 17.472 23.5406 17.064 23.1566 16.56C22.4006 15.588 22.0226 14.502 22.0226 13.302C22.0226 11.79 22.5086 10.584 23.4806 9.684C24.4646 8.772 25.6886 8.316 27.1526 8.316C28.8206 8.316 30.0446 8.904 30.8246 10.08C31.2326 10.704 31.4366 11.388 31.4366 12.132ZM27.6386 12.654C28.0946 12.654 28.3226 12.462 28.3226 12.078C28.3226 11.802 28.2146 11.58 27.9986 11.412C27.7946 11.244 27.4946 11.16 27.0986 11.16C26.7146 11.16 26.3306 11.322 25.9466 11.646C25.5626 11.958 25.3706 12.294 25.3706 12.654H27.6386ZM36.9129 17.964C35.7009 17.964 34.6929 17.508 33.8889 16.596C33.0969 15.672 32.7009 14.55 32.7009 13.23V10.08C32.7009 9.792 32.7069 9.582 32.7189 9.45C32.7429 9.318 32.7969 9.162 32.8809 8.982C33.0489 8.658 33.5169 8.496 34.2849 8.496C35.1249 8.496 35.6169 8.724 35.7609 9.18C35.8329 9.372 35.8689 9.678 35.8689 10.098V13.248C35.8689 13.74 36.0069 14.124 36.2829 14.4C36.5709 14.676 36.9489 14.814 37.4169 14.814C37.8969 14.814 38.2809 14.67 38.5689 14.382C38.8689 14.094 39.0189 13.716 39.0189 13.248V10.062C39.0189 9.786 39.0249 9.582 39.0369 9.45C39.0609 9.306 39.1209 9.144 39.2169 8.964C39.3729 8.652 39.8349 8.496 40.6029 8.496C41.3589 8.496 41.8209 8.658 41.9889 8.982C42.0729 9.162 42.1209 9.324 42.1329 9.468C42.1569 9.6 42.1689 9.804 42.1689 10.08V16.452C42.1689 16.716 42.1569 16.92 42.1329 17.064C42.1209 17.196 42.0669 17.346 41.9709 17.514C41.7909 17.826 41.3289 17.982 40.5849 17.982C39.8529 17.982 39.4029 17.838 39.2349 17.55C39.1149 17.346 39.0549 17.1 39.0549 16.812C39.0069 16.896 38.8989 17.016 38.7309 17.172C38.5629 17.328 38.4009 17.46 38.2449 17.568C37.8369 17.832 37.3929 17.964 36.9129 17.964ZM52.851 12.132C52.851 12.864 52.665 13.41 52.293 13.77C51.933 14.118 51.531 14.292 51.087 14.292H46.821C46.821 14.628 47.019 14.91 47.415 15.138C47.811 15.366 48.207 15.48 48.603 15.48C49.299 15.48 49.845 15.408 50.241 15.264L50.439 15.192C50.727 15.06 50.967 14.994 51.159 14.994C51.543 14.994 51.873 15.264 52.149 15.804C52.305 16.128 52.383 16.404 52.383 16.632C52.383 17.7 51.105 18.234 48.549 18.234C47.661 18.234 46.869 18.084 46.173 17.784C45.489 17.472 44.955 17.064 44.571 16.56C43.815 15.588 43.437 14.502 43.437 13.302C43.437 11.79 43.923 10.584 44.895 9.684C45.879 8.772 47.103 8.316 48.567 8.316C50.235 8.316 51.459 8.904 52.239 10.08C52.647 10.704 52.851 11.388 52.851 12.132ZM49.053 12.654C49.509 12.654 49.737 12.462 49.737 12.078C49.737 11.802 49.629 11.58 49.413 11.412C49.209 11.244 48.909 11.16 48.513 11.16C48.129 11.16 47.745 11.322 47.361 11.646C46.977 11.958 46.785 12.294 46.785 12.654H49.053Z" fill="black"/>
<line x1="60" y1="13.5" x2="240" y2="13.5" stroke="black"/>
</svg>
